<?xml version="1.0" standalone="no"?>
<!DOCTYPE svg PUBLIC "-//W3C//DTD SVG 20010904//EN"
 "http://www.w3.org/TR/2001/REC-SVG-20010904/DTD/svg10.dtd">
<svg version="1.0" xmlns="http://www.w3.org/2000/svg"
 width="940.000000pt" height="349.000000pt" viewBox="0 0 940.000000 349.000000"
 preserveAspectRatio="xMidYMid meet">

<g transform="translate(0.000000,349.000000) scale(0.100000,-0.100000)"
fill="#000000" stroke="none">
<path d="M5717 2749 c-301 -45 -661 -237 -723 -385 -19 -45 -18 -60 6 -84 30
-30 48 -25 60 19 39 146 508 381 760 381 132 0 164 -45 104 -145 -86 -144
-297 -279 -501 -320 -43 -8 -47 -17 -23 -47 16 -21 31 -26 89 -32 78 -7 110
-17 134 -41 21 -21 22 -77 2 -115 -15 -28 -18 -29 -97 -32 l-82 -3 -22 -70
c-19 -63 -25 -72 -59 -88 -52 -26 -137 -33 -186 -17 -54 18 -73 1 -39 -35 32
-34 82 -48 163 -43 56 2 66 1 62 -12 -3 -8 -56 -187 -120 -397 -63 -209 -118
-388 -121 -397 -5 -14 10 -16 134 -16 l140 0 7 28 c3 15 13 51 21 80 l16 53
146 -3 146 -3 24 -77 24 -78 134 0 c80 0 134 4 134 10 0 5 -34 124 -76 264
l-76 255 40 53 c21 29 56 82 78 117 l38 63 12 -45 c32 -126 126 -197 383 -292
154 -57 189 -95 136 -145 -21 -20 -39 -25 -93 -28 -77 -4 -121 17 -150 69 -35
63 -27 62 -147 26 -127 -39 -125 -35 -75 -143 38 -83 90 -138 166 -175 54 -27
79 -33 159 -37 273 -14 429 98 429 308 0 62 -5 84 -27 126 -49 95 -129 148
-355 235 -143 54 -179 82 -160 124 18 40 102 63 170 45 52 -14 94 -51 109 -97
12 -38 4 -38 146 6 87 27 88 28 85 59 -7 88 -101 210 -200 259 -54 26 -65 28
-193 28 l-135 0 35 29 c20 16 61 45 91 64 30 19 58 40 62 46 9 14 -10 46 -28
46 -20 0 -117 -50 -181 -93 -29 -20 -53 -33 -53 -29 0 4 11 40 25 80 14 41 25
84 25 96 0 21 -27 56 -44 56 -3 0 -53 -39 -109 -86 -103 -87 -232 -172 -244
-160 -3 3 8 34 25 67 18 34 32 67 32 74 0 16 -33 45 -52 45 -23 0 -79 -113
-85 -173 -6 -63 5 -77 71 -84 59 -7 105 10 199 74 44 30 77 48 74 39 -53 -137
-74 -174 -144 -249 -40 -43 -95 -107 -122 -143 l-49 -65 -26 83 c-13 46 -37
127 -53 180 -16 57 -33 98 -40 98 -9 0 -13 17 -13 50 0 64 -28 121 -75 153
l-36 24 43 17 c117 47 273 167 338 261 62 89 61 171 -2 232 -60 58 -150 79
-261 62z m-88 -1321 c17 -75 31 -139 31 -142 0 -3 -32 -6 -71 -6 -69 0 -71 1
-66 23 3 12 18 79 33 150 15 70 31 124 35 120 4 -5 21 -70 38 -145z"/>
<path d="M3283 2721 c-118 -65 -211 -151 -278 -255 -19 -30 -35 -64 -35 -75 0
-18 34 -51 52 -51 4 0 27 30 51 68 24 37 69 92 100 122 63 60 160 126 165 111
2 -5 -32 -78 -74 -163 -137 -273 -202 -464 -224 -653 -9 -88 -9 -90 14 -114
34 -33 56 -22 56 28 0 61 35 227 69 328 37 111 110 276 202 452 73 141 83 185
51 214 -29 26 -89 21 -149 -12z"/>
<path d="M4273 2623 c-31 -65 -91 -199 -133 -298 l-78 -180 -148 -67 c-81 -37
-149 -66 -152 -64 -2 3 10 29 27 59 36 63 38 78 13 100 -28 25 -48 21 -147
-27 -51 -25 -92 -40 -94 -34 -6 19 -41 48 -56 48 -16 0 -57 -75 -86 -155 l-17
-50 -121 -3 -121 -3 0 -251 c0 -138 -3 -248 -7 -244 -4 4 -59 116 -123 249
l-117 242 -116 3 -117 3 0 -541 0 -540 140 0 140 0 2 251 3 252 119 -252 120
-251 118 0 118 0 1 503 0 502 35 28 34 29 0 -131 0 -131 120 0 120 0 0 -400 0
-400 140 0 140 0 2 398 3 397 118 3 117 3 0 79 c0 47 5 89 12 100 10 16 10 24
0 40 -6 11 -12 29 -12 40 0 15 -7 20 -28 20 -21 0 -32 7 -40 25 -7 14 -12 27
-12 29 0 2 21 16 46 32 78 49 117 140 76 177 -25 22 -60 21 -99 -3 -18 -11
-33 -17 -33 -14 0 9 100 236 162 367 l61 127 -23 25 c-13 14 -30 25 -37 25 -8
0 -38 -50 -70 -117z m-264 -615 c-11 -29 -22 -54 -24 -56 -1 -2 -34 -2 -71 0
l-69 3 85 52 c47 29 88 53 92 53 4 0 -2 -24 -13 -52z m-349 16 c-6 -14 -10
-36 -10 -50 0 -23 -3 -24 -60 -24 -33 0 -60 2 -60 5 0 7 121 95 131 95 5 0 4
-12 -1 -26z m460 -59 c0 -8 -7 -15 -15 -15 -9 0 -12 6 -9 15 4 8 10 15 15 15
5 0 9 -7 9 -15z"/>
<path d="M5371 2428 c-80 -147 -133 -318 -151 -491 -11 -105 -6 -128 30 -147
30 -16 40 -4 40 45 0 144 48 324 130 491 33 67 60 126 60 131 0 15 -34 43 -53
43 -9 0 -32 -29 -56 -72z"/>
<path d="M1233 1946 c-178 -56 -273 -242 -273 -536 0 -267 78 -443 228 -517
71 -35 192 -43 273 -19 113 34 204 135 247 273 38 123 46 113 -98 140 -69 12
-131 21 -137 18 -7 -2 -13 -15 -13 -27 -1 -35 -35 -103 -61 -122 -56 -38 -119
2 -146 92 -23 77 -23 247 0 324 45 149 173 139 202 -16 4 -21 13 -39 19 -42
11 -4 253 40 261 48 3 2 -5 39 -16 81 -41 149 -140 269 -251 302 -62 18 -177
19 -235 1z"/>
<path d="M2063 1941 c-127 -47 -204 -143 -250 -311 -13 -49 -18 -103 -18 -220
0 -166 12 -234 60 -337 32 -71 106 -147 174 -180 51 -26 66 -28 171 -28 105 0
120 2 171 28 156 76 239 256 239 517 0 261 -84 442 -239 517 -76 37 -228 44
-308 14z m188 -278 c60 -36 95 -179 79 -325 -11 -90 -30 -138 -70 -172 -42
-35 -81 -34 -125 5 -48 42 -65 105 -65 239 0 134 17 197 65 239 40 35 73 39
116 14z"/>
<path d="M4340 1410 l0 -540 140 0 140 0 0 195 0 195 50 0 c79 0 135 -39 159
-109 6 -19 11 -90 11 -157 l0 -124 130 0 130 0 0 108 c0 165 -21 250 -83 334
l-20 27 35 41 c61 70 85 212 57 340 -23 108 -114 196 -224 218 -35 7 -154 12
-292 12 l-233 0 0 -540z m469 265 c33 -16 41 -33 41 -81 0 -24 -8 -43 -25 -59
-22 -23 -32 -25 -115 -25 l-90 0 0 90 0 90 80 0 c52 0 91 -5 109 -15z"/>
<path d="M6930 1810 l0 -140 120 0 120 0 0 -400 0 -400 140 0 140 0 0 400 0
400 120 0 120 0 0 140 0 140 -380 0 -380 0 0 -140z"/>
<path d="M7760 1410 l0 -540 335 0 335 0 0 130 0 130 -195 0 -195 0 0 75 0 75
149 0 c81 0 169 3 195 6 l47 7 -3 121 -3 121 -192 3 -193 2 0 75 0 75 195 0
195 0 0 130 0 130 -335 0 -335 0 0 -540z"/>
</g>
</svg>
